<svg height="512pt" viewBox="-86 0 512 512" width="512pt" xmlns="http://www.w3.org/2000/svg"><path d="m270.042969 504.5h-199.988281c-21.472657 0-40.347657-14.234375-46.246094-34.882812l-13.195313-46.1875c-5.710937-19.984376-3.433593-41.40625 6.34375-59.746094l106.222657-199.164063c4.179687-7.835937 12.335937-12.730469 21.21875-12.730469h51.300781c8.882812 0 17.042969 4.894532 21.21875 12.730469l106.222656 199.164063c9.78125 18.339844 12.054687 39.761718 6.34375 59.746094l-13.195313 46.1875c-5.898437 20.648437-24.769531 34.882812-46.246093 34.882812zm0 0" fill="#eceaec"/><path d="m311.519531 480.453125h-191.40625c-7.148437 0-13.265625-5.054687-14.226562-11.761719l-6.539063-46.378906c-2.6875-19.0625-1.640625-39.15625 2.945313-56.589844l56.746093-211.859375.558594-2.074219h-15.199218c-8.882813 0-17.039063 4.898438-21.21875 12.734376l-106.222657 199.160156c-9.777343 18.339844-12.054687 39.761718-6.34375 59.746094l13.195313 46.1875c5.898437 20.648437 24.773437 34.882812 46.246094 34.882812h199.988281c17.433593 0 33.019531-9.472656 41.476562-24.046875zm0 0" fill="#dad8db"/><path d="m16.957031 363.683594c-2.15625 4.046875-3.882812 8.261718-5.308593 12.558594h316.800781c-1.421875-4.296876-3.152344-8.511719-5.308594-12.558594l-95.910156-179.828125h-114.363281zm0 0" fill="#dbeaff"/><path d="m151.007812 183.855469h-38.140624l-20.304688 38.078125-75.601562 141.75c-.074219.144531-.132813.292968-.207032.433594-1 1.90625-1.90625 3.851562-2.746094 5.816406-.871093 2.074218-1.652343 4.179687-2.355468 6.304687v.003907h88.484375c.625-3.566407 1.265625-7.128907 2.15625-10.519532zm0 0" fill="#c3ddff"/><path d="m170.050781 119.726562c-8.855469 0-16.03125 7.175782-16.03125 16.03125v16.03125h32.0625v-16.03125c0-8.855468-7.179687-16.03125-16.03125-16.03125zm0 0" fill="#dad8db"/><path d="m202.113281 440.371094c0 17.707031-14.355469 32.066406-32.0625 32.066406-17.710937 0-32.066406-14.359375-32.066406-32.066406 0-17.710938 14.355469-32.066406 32.066406-32.066406 17.707031 0 32.0625 14.355468 32.0625 32.066406zm0 0" fill="#dad8db"/><path d="m323.140625 363.683594-48.824219-91.542969c-.867187-.050781-1.71875-.109375-2.695312-.109375-16.960938 0-16.960938 8.015625-33.917969 8.015625-16.953125 0-16.953125-8.015625-33.910156-8.015625-16.949219 0-16.949219 8.015625-33.902344 8.015625-16.957031 0-16.957031-8.015625-33.914063-8.015625-16.957031 0-16.957031 8.015625-33.914062 8.015625-16.953125 0-16.953125-8.015625-33.910156-8.015625-.90625 0-1.578125.109375-2.390625.152344l-48.800781 91.5c-2.160157 4.046875-3.886719 8.261718-5.308594 12.558594h316.796875c-1.421875-4.296876-3.152344-8.511719-5.308594-12.558594zm0 0" fill="#c3ddff"/><path d="m127.121094 273.035156c-8.796875 2.128906-11.761719 7.015625-25.058594 7.015625-16.957031 0-16.957031-8.019531-33.914062-8.019531-.902344 0-1.574219.109375-2.386719.152344l-48.804688 91.5c-.074219.144531-.128906.292968-.203125.433594-1 1.90625-1.90625 3.851562-2.75 5.816406-.867187 2.074218-1.648437 4.179687-2.351562 6.304687v.003907h88.484375c.621093-3.566407 1.265625-7.128907 2.15625-10.519532zm0 0" fill="#a4ccff"/><path d="m329.757812 360.15625-106.21875-199.164062c-5.496093-10.300782-16.164062-16.703126-27.835937-16.703126h-2.121094v-8.53125c0-12.976562-10.558593-23.53125-23.53125-23.53125-12.976562 0-23.53125 10.554688-23.53125 23.53125v8.53125h-2.121093c-11.675782 0-22.34375 6.402344-27.835938 16.703126l-106.21875 199.164062c-10.753906 20.160156-13.21875 43.363281-6.941406 65.332031l13.195312 46.1875c6.785156 23.742188 28.765625 40.324219 53.457032 40.324219h199.988281c24.691406 0 46.675781-16.582031 53.457031-40.324219l13.199219-46.1875c6.277343-21.96875 3.8125-45.171875-6.941407-65.332031zm-168.238281-224.398438c0-4.703124 3.828125-8.53125 8.53125-8.53125s8.53125 3.828126 8.53125 8.53125v8.53125h-17.0625zm-17.121093 23.53125h51.304687c6.125 0 11.71875 3.359376 14.601563 8.761719l4.425781 8.304688h-52.695313c-4.140625 0-7.5 3.359375-7.5 7.5s3.359375 7.5 7.5 7.5h60.695313l39.050781 73.21875c-8.390625.335937-13.1875 2.789062-17.09375 4.792969-3.601562 1.847656-6.203125 3.183593-12.207031 3.183593-6 0-8.601563-1.335937-12.203125-3.183593-4.199219-2.152344-9.425782-4.832032-19.050782-4.832032-9.621093 0-14.847656 2.679688-19.046874 4.832032-3.597657 1.847656-6.199219 3.183593-12.199219 3.183593-6.003907 0-8.605469-1.335937-12.207031-3.183593-4.199219-2.152344-9.425782-4.832032-19.050782-4.832032-9.628906 0-14.855468 2.679688-19.054687 4.832032-3.597657 1.847656-6.199219 3.183593-12.203125 3.183593s-8.605469-1.335937-12.207032-3.183593c-3.882812-1.988282-8.648437-4.425782-16.945312-4.785157l39.054688-73.226562h12.605468c4.140625 0 7.5-3.359375 7.5-7.5s-3.359375-7.5-7.5-7.5h-4.605468l4.429687-8.304688c2.882813-5.402343 8.476563-8.761719 14.601563-8.761719zm177.878906 262.078126-13.199219 46.1875c-4.953125 17.335937-21.003906 29.445312-39.035156 29.445312h-199.988281c-18.03125 0-34.082032-12.109375-39.035157-29.445312l-13.195312-46.1875c-3.554688-12.441407-3.722657-25.359376-.632813-37.625h249.054688c4.140625 0 7.5-3.359376 7.5-7.5 0-4.140626-3.359375-7.5-7.5-7.5h-243.4375c.257812-.507813.5-1.023438.769531-1.527344l46.386719-86.976563c1.824218-.46875 3.828125-.707031 6.242187-.707031 6.003907 0 8.605469 1.335938 12.207031 3.183594 4.199219 2.152344 9.425782 4.835937 19.050782 4.835937s14.851562-2.683593 19.050781-4.835937c3.601563-1.847656 6.203125-3.183594 12.207031-3.183594s8.605469 1.335938 12.207032 3.183594c4.199218 2.152344 9.425781 4.835937 19.050781 4.835937s14.851562-2.683593 19.046875-4.835937c3.601562-1.847656 6.203125-3.183594 12.203125-3.183594s8.601562 1.335938 12.203125 3.183594c4.199218 2.152344 9.421875 4.835937 19.046875 4.835937 9.628906 0 14.855469-2.683593 19.054687-4.835937 3.601563-1.847656 6.203125-3.183594 12.207032-3.183594 2.8125 0 4.832031.308594 6.402343.726562l46.378907 86.957032c.269531.503906.511718 1.019531.769531 1.527344h-18.980469c-4.140625 0-7.5 3.359374-7.5 7.5 0 4.140624 3.359375 7.5 7.5 7.5h24.597656c3.085938 12.265624 2.921875 25.183593-.632812 37.625zm0 0"/><path d="m170.128906 72.144531h-.078125c-4.144531 0-7.460937 3.359375-7.460937 7.5s3.398437 7.5 7.539062 7.5c4.144532 0 7.5-3.359375 7.5-7.5s-3.355468-7.5-7.5-7.5zm0 0"/><path d="m170.050781 39.046875c4.140625 0 7.5-3.355469 7.5-7.5 0-4.140625-3.359375-7.5-7.5-7.5h-.082031c-4.140625 0-7.457031 3.359375-7.457031 7.5 0 4.144531 3.394531 7.5 7.539062 7.5zm0 0"/><path d="m154.019531 63.097656h.105469c4.140625 0 7.5-3.359375 7.5-7.5 0-4.144531-3.359375-7.5-7.5-7.5h-.105469c-4.144531 0-7.5 3.355469-7.5 7.5 0 4.140625 3.355469 7.5 7.5 7.5zm0 0"/><path d="m154.019531 15h.105469c4.140625 0 7.5-3.359375 7.5-7.5s-3.359375-7.5-7.5-7.5h-.105469c-4.144531 0-7.5 3.359375-7.5 7.5s3.355469 7.5 7.5 7.5zm0 0"/><path d="m138.050781 39.046875c4.140625 0 7.5-3.355469 7.5-7.5 0-4.140625-3.359375-7.5-7.5-7.5h-.066406c-4.140625 0-7.464844 3.359375-7.464844 7.5 0 4.144531 3.386719 7.5 7.53125 7.5zm0 0"/><path d="m202.195312 39.046875c4.140626 0 7.5-3.355469 7.5-7.5 0-4.140625-3.359374-7.5-7.5-7.5h-.0625c-4.144531 0-7.46875 3.359375-7.46875 7.5 0 4.144531 3.386719 7.5 7.53125 7.5zm0 0"/><path d="m218.210938 15c4.140624 0 7.5-3.359375 7.5-7.5s-3.359376-7.5-7.5-7.5h-.0625c-4.144532 0-7.46875 3.359375-7.46875 7.5s3.390624 7.5 7.53125 7.5zm0 0"/><path d="m122.015625 15c4.144531 0 7.5-3.359375 7.5-7.5s-3.355469-7.5-7.5-7.5h-.0625c-4.140625 0-7.46875 3.359375-7.46875 7.5s3.390625 7.5 7.53125 7.5zm0 0"/><path d="m186.054688 63.097656h.105468c4.144532 0 7.5-3.359375 7.5-7.5 0-4.144531-3.355468-7.5-7.5-7.5h-.105468c-4.140626 0-7.5 3.355469-7.5 7.5 0 4.140625 3.359374 7.5 7.5 7.5zm0 0"/><path d="m186.054688 15h.105468c4.144532 0 7.5-3.359375 7.5-7.5s-3.355468-7.5-7.5-7.5h-.105468c-4.140626 0-7.5 3.359375-7.5 7.5s3.359374 7.5 7.5 7.5zm0 0"/><path d="m170.113281 223.417969h.082031c4.140626 0 7.460938-3.355469 7.460938-7.5 0-4.140625-3.398438-7.5-7.542969-7.5-4.140625 0-7.5 3.359375-7.5 7.5 0 4.144531 3.359375 7.5 7.5 7.5zm0 0"/><path d="m186.039062 247.46875h.105469c4.144531 0 7.5-3.359375 7.5-7.5 0-4.144531-3.355469-7.5-7.5-7.5h-.105469c-4.140624 0-7.5 3.355469-7.5 7.5 0 4.140625 3.359376 7.5 7.5 7.5zm0 0"/><path d="m202.113281 223.417969h.066407c4.140624 0 7.464843-3.355469 7.464843-7.5 0-4.140625-3.386719-7.5-7.53125-7.5-4.140625 0-7.5 3.359375-7.5 7.5 0 4.144531 3.359375 7.5 7.5 7.5zm0 0"/><path d="m130.46875 215.917969c0 4.144531 3.359375 7.5 7.5 7.5h.0625c4.144531 0 7.46875-3.355469 7.46875-7.5 0-4.140625-3.390625-7.5-7.53125-7.5s-7.5 3.359375-7.5 7.5zm0 0"/><path d="m121.953125 232.46875c-4.140625 0-7.5 3.355469-7.5 7.5 0 4.140625 3.359375 7.5 7.5 7.5h.0625c4.144531 0 7.46875-3.359375 7.46875-7.5 0-4.144531-3.390625-7.5-7.53125-7.5zm0 0"/><path d="m218.148438 247.46875h.0625c4.140624 0 7.46875-3.359375 7.46875-7.5 0-4.144531-3.390626-7.5-7.53125-7.5-4.144532 0-7.5 3.355469-7.5 7.5 0 4.140625 3.355468 7.5 7.5 7.5zm0 0"/><path d="m154 247.46875h.109375c4.140625 0 7.5-3.359375 7.5-7.5 0-4.144531-3.359375-7.5-7.5-7.5h-.109375c-4.140625 0-7.5 3.355469-7.5 7.5 0 4.140625 3.359375 7.5 7.5 7.5zm0 0"/><path d="m142.074219 412.394531c-15.425781 15.425781-15.425781 40.527344 0 55.953125 7.710937 7.714844 17.84375 11.570313 27.976562 11.570313 10.128907 0 20.261719-3.855469 27.976563-11.570313 15.425781-15.425781 15.425781-40.527344 0-55.953125-15.425782-15.425781-40.527344-15.425781-55.953125 0zm45.34375 45.347657c-9.574219 9.574218-25.160157 9.574218-34.738281 0-9.578126-9.578126-9.578126-25.164063 0-34.742188 4.789062-4.789062 11.082031-7.183594 17.371093-7.183594 3.859375 0 7.71875.914063 11.230469 2.714844l-5.195312 5.199219c-2.929688 2.929687-2.929688 7.679687 0 10.609375 1.464843 1.464844 3.382812 2.195312 5.300781 2.195312 1.921875 0 3.839843-.730468 5.304687-2.195312l5.199219-5.199219c4.742187 9.238281 3.257813 20.871094-4.472656 28.601563zm0 0"/><path d="m105.921875 432.871094h-8.015625c-4.144531 0-7.5 3.359375-7.5 7.5s3.355469 7.5 7.5 7.5h8.015625c4.140625 0 7.5-3.359375 7.5-7.5s-3.359375-7.5-7.5-7.5zm0 0"/><path d="m242.195312 432.871094h-8.015624c-4.144532 0-7.5 3.359375-7.5 7.5s3.355468 7.5 7.5 7.5h8.015624c4.140626 0 7.5-3.359375 7.5-7.5s-3.359374-7.5-7.5-7.5zm0 0"/></svg>